<svg xmlns="http://www.w3.org/2000/svg" width="109" height="109" viewBox="0 0 109 109" style="fill:none;stroke:currentColor;stroke-width:3;stroke-linecap:round;stroke-linejoin:round;">
<path id="kvg:04e99-s1" d="M21.5,19.66c1.35,0.29,3.81,0.35,5.15,0.29c12.98-0.54,48.11-3.37,60.89-3.37c2.24,0,3.59,0.14,4.71,0.29"/>
<path id="kvg:04e99-s2" d="M44.5,22.25c1,1.5,1.02,4.39,0.5,6.75c-2.5,11.25-12.75,39.5-15.88,48.1"/>
<path id="kvg:04e99-s3" d="M42.75,39.08c8.42-1.26,26.53-2.8,29.44-3.07c3.51-0.32,4.09,1.93,3.29,4.17c-2.97,8.3-5.67,22.4-11.61,51.32"/>
<path id="kvg:04e99-s4" d="M47.5,50.5c4.24,1.76,10.94,7.25,12,10"/>
<path id="kvg:04e99-s5" d="M42.5,68.5c4.41,1.76,11.39,7.25,12.5,10"/>
<path id="kvg:04e99-s6" d="M13.75,93.25c1.57,0.56,4.44,0.61,6.01,0.56c16.59-0.52,53.82-3.05,70.26-2.27c2.61,0.12,4.18,0.27,5.48,0.55"/>
</svg>