<svg xmlns="http://www.w3.org/2000/svg" width="109" height="109" viewBox="0 0 109 109" style="fill:none;stroke:currentColor;stroke-width:3;stroke-linecap:round;stroke-linejoin:round;">
<path id="kvg:04edf-s1" d="M32.49,15.89c0.13,1.16,0.23,2.62-0.12,4.05c-2.24,9.04-10.89,26.52-21.31,38.77"/>
<path id="kvg:04edf-s2" d="M26.53,40.5c0.59,0.61,0.76,1.97,0.76,3.23c0,13.02-0.29,41.65-0.29,50.4"/>
<path id="kvg:04edf-s3" d="M83.17,12.67c0.1,0.51-0.69,3.33-1.33,3.78c-6.09,4.3-15.22,11.19-34.28,17.06"/>
<path id="kvg:04edf-s4" d="M38.72,54.25c0.98,0.43,3.45,0.53,4.43,0.43c11.39-1.19,31.42-4.91,50.44-5.55c1.64-0.06,2.63,0.2,3.45,0.42"/>
<path id="kvg:04edf-s5" d="M67.1,29.29c0.49,0.48,1.53,3.57,1.63,4.53c0.1,0.96-0.06,56.71-0.16,62.68"/>
</svg>