<svg xmlns="http://www.w3.org/2000/svg" width="109" height="109" viewBox="0 0 109 109" style="fill:none;stroke:currentColor;stroke-width:3;stroke-linecap:round;stroke-linejoin:round;">
<path id="kvg:04eed-s1" d="M32.49,15.39c0.13,1.16,0.23,2.61-0.12,4.03c-2.24,8.99-10.89,26.36-21.31,38.55"/>
<path id="kvg:04eed-s2" d="M26.53,39.5c0.59,0.61,0.76,1.97,0.76,3.23c0,13.02-0.29,43.15-0.29,51.9"/>
<path id="kvg:04eed-s3" d="M45.22,24.4c1.66,0.83,3.73,0.57,5.21,0.45C61,24,78,21.61,84.57,20.76c4.27-0.55,6.17,1.66,5.93,5.55c-0.63,10.25-7.55,50.13-13.37,61.91c-4.22,8.55-6.69,5.81-9.88,0.26"/>
<path id="kvg:04eed-s4" d="M63.94,27.33c0.07,1.39,0.1,3.59-0.14,5.6c-2.35,19.6-8.74,39.48-24.05,56.94"/>
<path id="kvg:04eed-s5" d="M42,39.5c1.77,0,2.84,0.57,3.65,1.39C55.19,50.53,79,77.25,90.4,84.72c2.78,1.82,4.61,3.15,7.1,3.78"/>
</svg>