<svg xmlns="http://www.w3.org/2000/svg" width="109" height="109" viewBox="0 0 109 109" style="fill:none;stroke:currentColor;stroke-width:3;stroke-linecap:round;stroke-linejoin:round;">
<path id="kvg:051bd-s1" d="M16.29,19.25c3.99,2.19,10.3,9,11.29,12.41"/>
<path id="kvg:051bd-s2" d="M11.98,83.17c1.77,1.08,3.94,0.23,5.13-1.5C18.27,79.99,23.5,69,27.77,59.67"/>
<path id="kvg:051bd-s3" d="M33.99,23.73c0.94,0.52,2.65,0.63,3.6,0.52C43.75,23.5,57,21,63.23,20.26c1.55-0.18,2.5,0.25,3.28,0.51"/>
<path id="kvg:051bd-s4" d="M49.93,25.65c0.18,0.6,0.73,2.41,0.34,3.54c-2.52,7.31-9.02,22.56-16.94,31.36"/>
<path id="kvg:051bd-s5" d="M47.62,42.03c0.26,0.04,3.26-0.36,3.95-0.63c2.94-1.15,4.63-1.6,8.72-2.29c2.41-0.41,4.36,1.01,3.72,3.33c-4.25,15.32-16.25,37.82-33.75,49.82"/>
<path id="kvg:051bd-s6" d="M40.8,55.34c3.56,1.84,9.19,7.58,10.08,10.45"/>
<path id="kvg:051bd-s7" d="M73.89,26.37c0.63,0.63,1.43,1.49,1.51,4.52c0.34,14.55-0.22,34.16-0.22,39.12"/>
<path id="kvg:051bd-s8" d="M90.26,15.33c0.63,0.92,1.43,2.49,1.51,5.52c0.34,14.55-0.22,60.16-0.22,65.12c0,11.53-5.3,3.53-7.47,0.75"/>
</svg>