<svg xmlns="http://www.w3.org/2000/svg" width="109" height="109" viewBox="0 0 109 109" style="fill:none;stroke:currentColor;stroke-width:3;stroke-linecap:round;stroke-linejoin:round;">
<path id="kvg:05208-s1" d="M40.87,19.35c0.42,1.56,0.52,2.74-0.04,5.51C35.84,49.6,27.62,68.62,14.5,82"/>
<path id="kvg:05208-s2" d="M15.62,38c12.36,7.39,25.95,21.42,32.49,32.57"/>
<path id="kvg:05208-s3" d="M63.02,21.33c0.98,0.92,1.76,2.67,1.76,5.02c0,7.04-0.01,28.57-0.02,40.15c0,3.26,0,5.76,0,7"/>
<path id="kvg:05208-s4" d="M87.02,14.33c1.26,1.26,1.76,2.79,1.76,5.02c0,14.56-0.01,64.16-0.01,69.12c0,13.14-7.21,1.5-8.71,0.25"/>
</svg>