<svg xmlns="http://www.w3.org/2000/svg" width="109" height="109" viewBox="0 0 109 109" style="fill:none;stroke:currentColor;stroke-width:3;stroke-linecap:round;stroke-linejoin:round;">
<path id="kvg:054fa-s1" d="M12.25,35.29c0.37,0.51,0.76,0.94,0.92,1.58c1.29,5.07,2.84,15.54,3.73,24.63"/>
<path id="kvg:054fa-s2" d="M13.58,37.22c8.92-1.97,16.55-3.06,20.92-3.73c1.6-0.24,2.56,1.44,2.33,2.87c-0.95,5.92-2.05,12.07-3.46,20.25"/>
<path id="kvg:054fa-s3" d="M17.07,58.55c5.14-0.75,11.33-1.05,18.39-2.21"/>
<path id="kvg:054fa-s4" d="M43.25,28.95c1.14,0.48,3.24,0.56,4.39,0.48c9.4-0.67,30.23-3.17,43.1-3.59c1.91-0.06,3.05,0.23,4.01,0.46"/>
<path id="kvg:054fa-s5" d="M46.41,41.86c0.55,0.73,0.91,1.47,1.09,2.2c0.18,0.74-0.22,47.44-0.2,54.06"/>
<path id="kvg:054fa-s6" d="M48.6,43.8c6.14-0.31,38.13-3.31,39.76-3.51c2.92-0.37,4.01,2.39,3.65,3.49c-0.04,2.48-0.62,30.89-0.62,47.69c0,11.98-6.5,2.29-7.79,1.57"/>
<path id="kvg:054fa-s7" d="M48.6,57.36c8.13-0.64,35.57-2.28,42.13-2.83"/>
<path id="kvg:054fa-s8" d="M48.77,71.29c5.83-0.55,35.71-2.29,42.46-2.66"/>
<path id="kvg:054fa-s9" d="M66.2,11.3c1.29,0.59,2.06,2.67,2.32,3.85c0.26,1.19,0,74.07-0.26,81.48"/>
<path id="kvg:054fa-s10" d="M82.5,11.5c3,1.41,7.25,5.3,8,7.5"/>
</svg>