<svg xmlns="http://www.w3.org/2000/svg" width="109" height="109" viewBox="0 0 109 109" style="fill:none;stroke:currentColor;stroke-width:3;stroke-linecap:round;stroke-linejoin:round;">
<path id="kvg:057d3-s1" d="M11.5,43.14c0.76,0.38,2.24,0.43,3,0.36c5.75-0.5,16.15-2.39,21.5-3c1.25-0.14,2.62-0.18,3.25,0.01"/>
<path id="kvg:057d3-s2" d="M25.3,15c1.16,0.53,2.09,2.37,2.09,3.47c0,7.73,0.03,41.32,0.03,52.78"/>
<path id="kvg:057d3-s3" d="M12.5,80.11c0.68,1.14,2.05,1.75,4.1,0.25c5.7-4.19,15.95-11.67,21.65-15.85"/>
<path id="kvg:057d3-s4" d="M77.28,11.5c0.08,0.45-0.19,1.81-0.66,2.33c-5.87,6.41-14.06,11.8-29.37,16.97"/>
<path id="kvg:057d3-s5" d="M49.77,35.58c3.1,1.57,8.02,6.45,8.79,8.88"/>
<path id="kvg:057d3-s6" d="M65.52,27.33c3.1,1.57,8.02,6.45,8.79,8.88"/>
<path id="kvg:057d3-s7" d="M91.02,25.5c0.11,0.65-0.24,2.58-0.85,3.32c-7.58,9.15-18.15,16.84-37.92,24.22"/>
<path id="kvg:057d3-s8" d="M45.38,65.35c1.22,0.61,3.44,0.74,4.66,0.61c13.21-1.46,29.47-4.16,44.33-5.09c2.02-0.12,3.24,0.29,4.26,0.59"/>
<path id="kvg:057d3-s9" d="M82.58,44.83c0.05,0.29,1.28,2.02,1.28,3.88c0,12.5-0.16,40.95-0.16,43.99c0,7.37-4.69,1.09-6.05,0.15"/>
<path id="kvg:057d3-s10" d="M57.63,73.9c2.93,1.68,7.57,6.91,8.3,9.53"/>
</svg>