<svg xmlns="http://www.w3.org/2000/svg" width="109" height="109" viewBox="0 0 109 109" style="fill:none;stroke:currentColor;stroke-width:3;stroke-linecap:round;stroke-linejoin:round;">
<path id="kvg:05a09-s1" d="M28.48,17.37c0.39,1.04,1.08,2.74,0.89,4.24C28.38,29,22.05,54.77,17.73,63.4c-0.89,1.77,0.4,2.46,0.89,2.63C28,69.25,36.5,76.66,41.75,84.28"/>
<path id="kvg:05a09-s2" d="M40.75,37.39c0.08,1.27,0.14,4.34-0.16,6.18C38.18,58.41,31.23,79.46,14,90.5"/>
<path id="kvg:05a09-s3" d="M9.5,46.92c0.77,0.81,1.8,1.4,3.86,1.2c2.22-0.21,21.97-4.18,31.14-6.24"/>
<path id="kvg:05a09-s4" d="M49.56,22.83c0.51,0.62,0.91,1.27,1.03,1.81c0.98,4.47,2.84,14.1,3.42,22.32"/>
<path id="kvg:05a09-s5" d="M51.28,24.04c9.17-1.12,31.52-3.19,37.32-3.63c2.13-0.16,2.93,1.13,2.81,2.33c-0.43,4.38-1.71,14.74-3.05,21.96"/>
<path id="kvg:05a09-s6" d="M68.71,10.11c1.22,0.97,1.94,2.38,1.95,3.65C70.7,26.4,70.88,41.4,70.88,44.7"/>
<path id="kvg:05a09-s7" d="M52.66,34.02c2.53-0.22,35.66-3.01,37.75-3.01"/>
<path id="kvg:05a09-s8" d="M54.41,45.85c6.4-0.32,26.3-2.22,34.03-2.34"/>
<path id="kvg:05a09-s9" d="M44.54,55.69c1.37,0.26,3.88,0.29,5.24,0.26c10.59-0.23,31.42-2.64,46.63-3c2.28-0.05,3.65,0.12,4.79,0.26"/>
<path id="kvg:05a09-s10" d="M63.45,57.02c0.31,0.59,0.48,1.34,0.06,2.18c-1.17,2.34-4.54,8.17-6.1,10.52c-0.88,1.33-0.28,2.56,1.84,2.18c3.86-0.69,18.34-2.7,23.11-3.56c4.63-0.83,4.6,1.67,4.03,4.82c-1.21,6.67-5.37,14.8-9.79,20.69c-3.86,5.15-6.11,1.65-7.93-1.21"/>
</svg>