<svg xmlns="http://www.w3.org/2000/svg" width="109" height="109" viewBox="0 0 109 109" style="fill:none;stroke:currentColor;stroke-width:3;stroke-linecap:round;stroke-linejoin:round;">
<path id="kvg:06253-s1" d="M13.17,35.25c1.58,0.38,3.34,0.34,5.33,0.25c5.38-0.25,16.5-1.62,26.64-2.77c1.04-0.12,1.98-0.13,2.78-0.14"/>
<path id="kvg:06253-s2" d="M33.02,12.83c1.14,1.14,1.76,3.29,1.76,5.52c0,14.56-0.01,65.41-0.01,70.37c0,9.53-4.77,4.66-8.46,0.75"/>
<path id="kvg:06253-s3" d="M14,67.9c1.61,0.65,3.17,0.58,4.92-0.61c1.64-1.12,16.48-11.55,23.46-16.92"/>
<path id="kvg:06253-s4" d="M54,31.38c2.38,0.37,4.75,0.3,6.5,0.11c9.46-1.06,21.03-2.15,31.08-3.22c2.91-0.31,4.7,0.29,6.16,0.59"/>
<path id="kvg:06253-s5" d="M76.27,33.33c1.07,1.07,2,2.67,2,4.56c0,14.67,0,47.36,0,52.55c0,10.94-4.76,3.4-8.21,0.5"/>
</svg>