<svg xmlns="http://www.w3.org/2000/svg" width="109" height="109" viewBox="0 0 109 109" style="fill:none;stroke:currentColor;stroke-width:3;stroke-linecap:round;stroke-linejoin:round;">
<path id="kvg:0676a-s1" d="M13.53,37.79c0.37,0.26,2.53,0.43,3.5,0.33c4.18-0.43,18.13-1.81,24.84-3.09c0.97-0.18,2.28-0.25,2.89,0"/>
<path id="kvg:0676a-s2" d="M29.36,14.5c0.91,0.47,2.14,2,2.54,4.42c0.15,0.94-0.12,70.75-0.3,76.58"/>
<path id="kvg:0676a-s3" d="M30.94,42.28c-5.66,14.6-8.81,20.78-17.58,33.56"/>
<path id="kvg:0676a-s4" d="M33.47,46.9c2.37,1.59,6.28,5.76,8.28,8.85"/>
<path id="kvg:0676a-s5" d="M69.69,11.75c0.08,0.38,1.64,1.95,1.71,4.34c0.36,11.44-0.23,40.61-0.23,44.5c0,9.94-6.47,0.59-7.82-0.39"/>
<path id="kvg:0676a-s6" d="M60.45,32.19c0.03,0.53,0.12,1.4-0.07,2.13c-1.37,5.3-6.27,14.94-10.97,19.83"/>
<path id="kvg:0676a-s7" d="M82.43,30.73c5.62,3,13.17,10.7,14.57,15.37"/>
<path id="kvg:0676a-s8" d="M88.78,52.22c0.13,1.09,0.43,2.88-0.27,4.37C82.5,69.5,62.5,89.25,41.72,97.5"/>
</svg>