<svg xmlns="http://www.w3.org/2000/svg" width="109" height="109" viewBox="0 0 109 109" style="fill:none;stroke:currentColor;stroke-width:3;stroke-linecap:round;stroke-linejoin:round;">
<path id="kvg:06c41-s1" d="M21.75,17.5c4.68,1.78,12.08,7.32,13.25,10.09"/>
<path id="kvg:06c41-s2" d="M15.5,40.62c4.5,1.61,11.62,6.62,12.75,9.12"/>
<path id="kvg:06c41-s3" d="M15.6,87.53c1.52,0.69,3.12,0.5,4.03-0.79c3.22-4.57,6.44-10.16,9.36-15.99"/>
<path id="kvg:06c41-s4" d="M40.67,48.16c2.32,0.83,5.59,0.5,7.98,0.27c12.58-1.23,30.86-3.05,40.97-3.66c2.42-0.15,4.83-0.28,7.22,0.23"/>
<path id="kvg:06c41-s5" d="M66.68,14.13c1.22,1.22,1.64,2.99,1.64,4.45c0,0.82,0.02,50.57,0.02,69.42c0,4.28,0,6.96-0.01,7.13"/>
</svg>