<svg xmlns="http://www.w3.org/2000/svg" width="109" height="109" viewBox="0 0 109 109" style="fill:none;stroke:currentColor;stroke-width:3;stroke-linecap:round;stroke-linejoin:round;">
<path id="kvg:06cea-s1" d="M20.88,16.5c4.54,1.6,11.73,6.6,12.87,9.09"/>
<path id="kvg:06cea-s2" d="M17,41.5c4.24,1.5,10.94,6.17,12,8.5"/>
<path id="kvg:06cea-s3" d="M17.25,89.23c1.71,1.27,3.78,1.32,4.86-0.25C25.25,84.42,32.39,70.83,35.25,65"/>
<path id="kvg:06cea-s4" d="M51.3,17.14c0.58,1.77,1.43,3.12,1.43,5.43c0,2.31-0.39,68.7-0.39,69.86"/>
<path id="kvg:06cea-s5" d="M52.55,19.47c3.28-0.07,29.42-2.57,32.41-2.72c2.49-0.12,4.45,1.91,4.25,4.04c-0.27,2.7-0.58,61.91-0.58,72.39"/>
<path id="kvg:06cea-s6" d="M52.64,42.42c10.36-0.67,28.86-2.17,35.59-2.4"/>
<path id="kvg:06cea-s7" d="M52.41,63.26c8.69-0.4,27.09-1.76,36.43-1.74"/>
<path id="kvg:06cea-s8" d="M53.03,89.81c7.46-0.02,26.72-1.06,35.25-1.28"/>
</svg>