<svg xmlns="http://www.w3.org/2000/svg" width="109" height="109" viewBox="0 0 109 109" style="fill:none;stroke:currentColor;stroke-width:3;stroke-linecap:round;stroke-linejoin:round;">
<path id="kvg:0751e-s1" d="M52.96,10.37c0.11,0.33,1.49,1.72,1.6,3.81c0.51,10.05,0.31,13.27,0.31,16.69"/>
<path id="kvg:0751e-s2" d="M28.48,16.09c3.99,2.05,10.3,8.44,11.29,11.63"/>
<path id="kvg:0751e-s3" d="M78.22,14.51c0.03,0.32,0.05,0.83-0.05,1.3c-0.61,2.74-4.11,8.74-8.9,12.42"/>
<path id="kvg:0751e-s4" d="M19.53,30.89c-0.21,4.33-3.81,14.48-5.57,17.06"/>
<path id="kvg:0751e-s5" d="M19.7,33.94c7.01-0.43,48.76-3.69,68.3-4.62c11.71-0.56,0.4,8.44-1.15,9.7"/>
<path id="kvg:0751e-s6" d="M33.91,39.64c0.29,0.26,0.61,0.47,0.7,0.82c0.81,3.02,1.84,9.37,2.66,13.81"/>
<path id="kvg:0751e-s7" d="M35.06,40.93c7.15-0.17,30.19-2.58,35.54-3.31c1.34-0.18,2.92,0.89,2.34,2.98c-0.93,3.4-1.72,4.87-3.3,9.47"/>
<path id="kvg:0751e-s8" d="M37.15,52.72c9.06,0.04,26.06-1.96,34.85-1.85"/>
<path id="kvg:0751e-s9" d="M14.32,68.89c2.28,0.65,6.46,0.81,8.73,0.65c16.76-1.19,38.35-2.38,65.83-3.95c3.79-0.22,6.07,0.31,7.97,0.63"/>
<path id="kvg:0751e-s10" d="M36.47,60.12c1.19,0.43,1.9,1.96,2.13,2.83c0.24,0.87,0,34.11-0.24,39.56"/>
<path id="kvg:0751e-s11" d="M69.03,57.26c1.03,0.38,1.65,1.71,1.86,2.47c0.21,0.76,0,37.56-0.21,42.31"/>
<path id="kvg:0751e-s12" d="M39.04,83.09c6.8-0.34,28.13-1.93,31.79-1.93"/>
<path id="kvg:0751e-s13" d="M38.54,98.71c7.93-0.24,24.66-0.71,31.98-0.95"/>
</svg>