<svg xmlns="http://www.w3.org/2000/svg" width="109" height="109" viewBox="0 0 109 109" style="fill:none;stroke:currentColor;stroke-width:3;stroke-linecap:round;stroke-linejoin:round;">
<path id="kvg:0758b-s1" d="M22.22,23c2.78,0.5,4.46,0.89,7.28,0.5c16-2.25,36.97-6.25,54.69-6.25c9.56,0,5.56,4-0.69,9.5"/>
<path id="kvg:0758b-s2" d="M52.87,21.25c1.09,0.5,1.74,2.25,1.96,3.25c0.22,1,0.5,45.25,0.28,51.5"/>
<path id="kvg:0758b-s3" d="M55.38,50c7.12-0.75,10.62-1.5,21.35-3c1.73-0.24,2.18-0.25,3.26,0"/>
<path id="kvg:0758b-s4" d="M35.75,44.64c0.06,0.99,0.12,2.56-0.11,3.98c-1.36,8.39-9.16,26.32-19.83,37.59"/>
<path id="kvg:0758b-s5" d="M30.75,64.5c8.2,3.64,44.2,20.84,53.11,24.42c3.02,1.21,5.61,1.73,8.64,2.08"/>
</svg>