<svg xmlns="http://www.w3.org/2000/svg" width="109" height="109" viewBox="0 0 109 109" style="fill:none;stroke:currentColor;stroke-width:3;stroke-linecap:round;stroke-linejoin:round;">
<path id="kvg:078a9-s1" d="M14.27,23.73c1.47,0.4,3.59,0.38,5.11,0.23c7.12-0.68,14.62-1.84,22.37-3.09c1.54-0.25,2.87-0.27,4.4-0.02"/>
<path id="kvg:078a9-s2" d="M27.83,26.31c0.04,0.98,0.25,2.56-0.09,3.93c-1.87,7.51-9.37,26.88-16.76,35.86"/>
<path id="kvg:078a9-s3" d="M21.86,50.76c0.94,0.94,1.18,1.94,1.37,3.36c0.71,5.12,1.3,14.5,1.83,22.63c0.17,2.51,0.33,4.9,0.48,7.01"/>
<path id="kvg:078a9-s4" d="M23.83,51.95c7.62-1.19,11.87-2.11,16.68-2.9c3.61-0.6,4.48,1.2,4.02,4.6c-0.85,6.24-2.01,13.7-3.1,21.95"/>
<path id="kvg:078a9-s5" d="M25.95,78.19c4.23-0.33,8.29-0.85,12.94-1.23c1.45-0.12,2.95-0.22,4.54-0.31"/>
<path id="kvg:078a9-s6" d="M52,17.87c3.25,0.63,5.62,0.27,8.26-0.03c9.65-1.11,18.98-2.45,27.62-3.09c2.59-0.19,5.07-0.38,7.62,0.17"/>
<path id="kvg:078a9-s7" d="M70.77,19.89c0.06,0.78-0.04,1.53-0.3,2.27c-1.34,2.72-2.79,5.31-5.34,8.67"/>
<path id="kvg:078a9-s8" d="M55.27,32.52c0.86,0.86,1,2.16,1,3.23c0,4.3,0,24.69,0,36.12c0,3.19,0,5.67,0,6.86"/>
<path id="kvg:078a9-s9" d="M57.11,34.21c6.15-0.74,20.96-2.56,26.52-3.1c3.22-0.32,4.76,0.76,4.76,4.14c0,6.82,0,25.49-0.01,36.37c0,3.27,0,5.79,0,7"/>
<path id="kvg:078a9-s10" d="M57.68,48.09c4.73-0.6,23.44-2,29.26-2.3"/>
<path id="kvg:078a9-s11" d="M57.42,62.48c6.61-0.68,21.84-1.97,29.68-2.35"/>
<path id="kvg:078a9-s12" d="M57.3,76.41c6.61-0.8,21.59-1.56,29.94-1.97"/>
<path id="kvg:078a9-s13" d="M64.46,81.61c-0.08,1.14-0.29,1.99-1.16,2.93c-3.17,3.46-8.55,7.71-15.44,11.97"/>
<path id="kvg:078a9-s14" d="M79.75,82.22c5.54,3.42,12.52,11.2,14.04,14.19"/>
</svg>