<svg xmlns="http://www.w3.org/2000/svg" width="109" height="109" viewBox="0 0 109 109" style="fill:none;stroke:currentColor;stroke-width:3;stroke-linecap:round;stroke-linejoin:round;">
<path id="kvg:08002-s1" d="M25.25,33.59c2.05,0.95,5.76,0.86,7.88,0.59c10.24-1.31,21.19-2.92,33.12-4.5c2.42-0.32,4.74-0.65,7.12,0.01"/>
<path id="kvg:08002-s2" d="M51.17,14.62c1.04,1.04,1.27,2.38,1.27,3.89c0,8.95-0.07,26.62-0.07,29.75"/>
<path id="kvg:08002-s3" d="M9.88,53.01c4.38,1.74,9.19,0.85,13.48,0.22c15.9-2.35,39.02-5.23,65.53-6.46c3.92-0.18,8.3-0.38,12.13,0.7"/>
<path id="kvg:08002-s4" d="M86.84,22.6c-0.11,2.06-1.33,4.57-2.92,6.38C63.48,52.19,39,71.88,8,86.75"/>
</svg>